<?xml version="1.0" standalone="no"?>
<!DOCTYPE svg PUBLIC "-//W3C//DTD SVG 1.1//EN" "http://www.w3.org/Graphics/SVG/1.1/DTD/svg11.dtd" >
<svg xmlns="http://www.w3.org/2000/svg">
<metadata>Generated by IcoMoon</metadata>
<defs>
<font id="icomoon" horiz-adv-x="1024">
<font-face units-per-em="1024" ascent="960" descent="-64" />
<missing-glyph horiz-adv-x="1024" />
<glyph unicode="&#x20;" horiz-adv-x="512" d="" />
<glyph unicode="&#xe900;" glyph-name="Futuresicon-previous" d="M696.67-0.015l-427.88 427.88 87.748 87.748 427.88-427.88-87.748-87.748zM796.881 774.943l-427.88-427.88-87.748 87.748 427.88 427.88 87.748-87.748z" />
<glyph unicode="&#xe901;" glyph-name="Futuresicon-Price" d="M877.056 896.32l-250.624-384h204.224v-64h-256v-128h256v-64h-256v-256h-128v256h-256v64h256v128h-256v64h222.72l-250.56 384h129.792l227.328-383.040 227.264 383.040h129.856z" />
<glyph unicode="&#xe902;" glyph-name="Futuresicon-right" d="M130.929 545.668l363.891-363.891-87.748-87.748-363.891 363.891 87.748 87.748zM318.956 208.215l562.784 562.784 87.748-87.748-562.784-562.784-87.748 87.748z" />
<glyph unicode="&#xe903;" glyph-name="Futuresicon-wrong" d="M128.319 155.831l696.691 696.691 91.821-91.821-696.691-696.691-91.821 91.821zM825.020 63.986l-696.691 696.691 91.821 91.821 696.691-696.691-91.821-91.821z" />
<glyph unicode="&#xe904;" glyph-name="Futuresicon-next" d="M368.942 862.737l427.88-427.88-87.748-87.748-427.88 427.88 87.748 87.748zM268.747 87.74l427.88 427.88 87.748-87.748-427.88-427.88-87.748 87.748z" />
<glyph unicode="&#xe905;" glyph-name="Futuresicon-pagenext" horiz-adv-x="1209" d="M511.36-5.632l605.312 447.168-605.312 447.232zM63.36-5.632l605.312 447.168-605.312 447.232z" />
<glyph unicode="&#xe906;" glyph-name="Futuresicon-page" d="M702.656 888.768l-605.312-447.232 605.312-447.168z" />
<glyph unicode="&#xe907;" glyph-name="Futuresicon-pagesend" d="M250.688-5.632l605.312 447.168-605.312 447.232z" />
<glyph unicode="&#xe908;" glyph-name="Futuresicon-pages" horiz-adv-x="1209" d="M697.344 888.768l-605.312-447.232 605.312-447.168zM1145.344 888.768l-605.312-447.232 605.312-447.168z" />
<glyph unicode="&#xe909;" glyph-name="Futuresicon-20" d="M766.976 704c0 141.376-114.624 256-256 256s-256-114.624-256-256c0-47.68 13.888-91.776 36.608-129.984h-36.608l251.776-638.016 260.288 638.016h-36.608c22.656 38.208 36.544 82.304 36.544 129.984z" />
<glyph unicode="&#xe90a;" glyph-name="Futuresicon-04" d="M53.312 794.688l910.976-339.328-910.976-339.264z" />
<glyph unicode="&#xe90b;" glyph-name="Futuresicon_close" d="M58.35 30.833l838.021 838.021 46.476-46.476-838.021-838.021-46.476 46.476zM896.354-15.653l-838.021 838.021 46.476 46.476 838.021-838.021-46.476-46.476z" />
<glyph unicode="&#xe90c;" glyph-name="Futuresicon_down" d="M512-10.688l451.648 522.688h-270.336v384h-384v-384h-248.96z" />
<glyph unicode="&#xe90d;" glyph-name="Futuresicon_up" d="M512 906.688l-451.648-522.688h259.648v-384h384v384h259.648z" />
<glyph unicode="&#xe90e;" glyph-name="Futuresicon_sort-hightolow" horiz-adv-x="574" d="M95.424 320.768l180.992-181.056 13.248-12.736 13.248 12.736 181.056 181.056-47.296 45.248-118.976-117.056v582.016h-64v-582.016l-115.072 117.056z" />
<glyph unicode="&#xe90f;" glyph-name="Futuresicon_sort-lowtohigh" horiz-adv-x="574" d="M483.968 620.224l-181.056 181.056-13.248 12.736-13.248-12.736-180.992-181.056 43.2-45.248 115.072 117.056v-565.056h64v565.056l118.976-117.056z" />
<glyph unicode="&#xe910;" glyph-name="pro_exchange_icon_delivery" horiz-adv-x="1537" d="M1432.768 458.688l-438.656 438.656-97.472-97.472 286.528-286.528h-1054.528v-128h1054.528l-286.528-286.528 97.472-97.472 438.656 438.592-9.408 9.408z" />
<glyph unicode="&#xe911;" glyph-name="pro_exchange_icon_down" d="M42.112 833.344l478.912-774.592 478.848 774.592z" />
<glyph unicode="&#xe912;" glyph-name="pro_exchange_icon_up" d="M999.872 65.344l-478.848 774.592-478.912-774.592z" />
<glyph unicode="&#xe913;" glyph-name="Futuresicon-33" d="M729.161 885.394c-8.302 30.61-38.656 49.225-67.73 41.545l-191.817-229.157-201.911-53.394c-116.334-30.793-191.232-127.342-157.989-249.893 28.087-103.534 114.651-158.098 210.688-152.357 3.218-7.168 60.197-221.879 60.197-221.879 8.302-30.61 38.656-49.225 67.73-41.545l78.994 20.919c29.074 7.68 45.934 38.802 37.632 69.413l-60.197 221.879 70.217 18.578 282.185-103.717c29.074 7.68 45.934 38.802 37.632 69.413l-165.632 610.194zM504.759 82.834c4.169-15.323-4.279-30.866-18.798-34.706l-26.331-6.985c-14.519-3.84-29.696 5.413-33.865 20.773l-52.699 194.158 78.994 20.919 52.699-194.158zM358.034 311.552c-52.37-13.861-162.377-25.673-195.657 96.878-33.243 122.551 65.792 167.973 120.357 180.48l210.688 55.735 75.264-277.358-210.651-55.735zM622.958 362.752l-84.846 312.649 137.801 176.091 155.538-573.221-208.494 84.48z" />
<glyph unicode="&#xe914;" glyph-name="Futuresicon-34" d="M510.939 891.977c-243.529 0-440.942-169.216-440.942-377.966 0-128.073 74.533-241.079 188.197-309.431l-56.722-146.103 203.008 89.125c34.158-7.278 69.669-11.557 106.459-11.557 243.529 0 440.942 169.216 440.942 377.966s-197.413 377.966-440.942 377.966z" />
<glyph unicode="&#xe915;" glyph-name="Futuresicon-35" d="M901.559 742.656h-207.214c9.435 16.165 15.214 34.779 15.214 54.857 0 60.599-49.115 109.714-109.714 109.714-32.951 0-62.171-14.848-82.286-37.851-20.114 23.003-49.335 37.851-82.286 37.851-60.599 0-109.714-49.115-109.714-109.714 0-20.078 5.815-38.693 15.214-54.857h-207.214c-30.281 0-54.857-24.576-54.857-54.857v-54.857c0-30.281 24.576-54.857 54.857-54.857v-438.857c0-60.599 49.115-109.714 109.714-109.714h548.571c60.599 0 109.714 49.115 109.714 109.714v438.857c30.281 0 54.857 24.576 54.857 54.857v54.857c0 30.281-24.576 54.857-54.857 54.857zM599.845 852.37c30.281 0 54.857-24.576 54.857-54.857s-24.576-54.857-54.857-54.857c-30.281 0-54.857 24.576-54.857 54.857s24.576 54.857 54.857 54.857zM435.273 852.37c30.281 0 54.857-24.576 54.857-54.857s-24.576-54.857-54.857-54.857-54.857 24.576-54.857 54.857 24.576 54.857 54.857 54.857zM490.13 84.37h-246.857c-30.281 0-54.857 24.576-54.857 54.857v164.571h301.714v-219.429zM490.13 358.656h-301.714v219.429h301.714v-219.429zM846.702 139.227c0-30.281-24.576-54.857-54.857-54.857h-246.857v219.429h301.714v-164.571zM846.702 358.656h-301.714v219.429h301.714v-219.429zM874.13 632.942h-713.143c-15.141 0-27.429 12.288-27.429 27.429s12.288 27.429 27.429 27.429h713.143c15.141 0 27.429-12.288 27.429-27.429 0-15.177-12.288-27.429-27.429-27.429z" />
<glyph unicode="&#xe916;" glyph-name="Futuresicon-36" d="M796.635 421.595l-97.353-65.536-97.353 65.536c-8.375 0-10.569-4.864-4.937-10.862l92.087-130.926c5.632-5.998 14.738-5.998 20.37 0l92.087 130.926c5.669 5.998 3.438 10.862-4.901 10.862zM333.422 621.056c-5.632 5.998-14.738 5.998-20.37 0l-92.087-130.926c-5.632-5.998-3.401-10.862 4.937-10.862l97.353 65.536 97.353-65.536c8.375 0 10.569 4.864 4.937 10.862l-92.123 130.926zM592.238 703.451h-92.818c-31.707 0-74.313 0-74.313 0-11.849 0-21.431-9.582-21.431-21.431s9.582-21.431 21.431-21.431c0.475 0 0.878 0.256 1.317 0.256h144.494c70.583 0 106.496-35.913 106.496-106.496v-195.73c0-11.776 9.545-21.285 21.285-21.285 11.776 0 21.285 9.545 21.285 21.285v217.015c0.073 70.583-57.161 127.817-127.744 127.817zM425.399 200.009h92.818c31.707 0 74.313 0 74.313 0 11.849 0 21.431 9.582 21.431 21.431s-9.582 21.431-21.431 21.431c-0.475 0-0.878-0.256-1.317-0.256h-144.494c-70.583 0-106.496 35.913-106.496 106.496v195.73c0 11.776-9.545 21.285-21.285 21.285-11.776 0-21.285-9.545-21.285-21.285v-217.015c-0.073-70.619 57.161-127.817 127.744-127.817z" />
<glyph unicode="&#xe917;" glyph-name="Futuresicon-37" d="M380.599 904.192c0 0-43.337-40.375-79.433-101.705-36.059-61.294-50.725-100.718-50.725-100.718s48.091-84.443 76.946-129.682c32.512-50.944 96.439-133.157 96.439-133.157s-63.927-82.213-96.439-133.157c-28.855-45.239-76.946-129.682-76.946-129.682s14.629-39.424 50.725-100.718c36.096-61.33 79.433-101.705 79.433-101.705s127.817 152.649 202.35 232.96 222.391 232.302 222.391 232.302-147.858 151.991-222.391 232.302c-74.533 80.311-202.35 232.96-202.35 232.96z" />
<glyph unicode="&#xe918;" glyph-name="Futuresicon-38" d="M499.639 714.423l-122.661 122.661c-70.144 70.144-183.918 70.144-254.062 0s-70.144-183.918 0-254.062l122.661-122.661c61.111-61.111 155.246-68.901 224.914-23.552l30.354-30.354c-45.349-69.632-37.559-163.767 23.552-224.914l122.661-122.661c70.144-70.144 183.918-70.144 254.062 0s70.144 183.918 0 254.062l-122.661 122.661c-61.111 61.111-155.246 68.901-224.878 23.552l-30.354 30.354c45.312 69.669 37.522 163.803-23.589 224.914zM275.017 528.823l-83.639 83.639c-47.835 47.835-51.639 121.563-8.521 164.681s116.846 39.278 164.718-8.558l83.602-83.602c37.522-37.522 47.543-90.807 29.477-132.937l-46.117 46.117c-14.555 14.555-38.144 14.555-52.699 0s-14.555-38.144 0-52.699l46.117-46.117c-42.13-18.066-95.415-8.046-132.937 29.477zM748.983 367.177l83.639-83.639c47.835-47.835 51.639-121.563 8.521-164.681s-116.846-39.278-164.681 8.558l-83.639 83.602c-37.522 37.522-47.543 90.807-29.477 132.937l47.835-47.835c14.555-14.555 38.144-14.555 52.699 0s14.555 38.144 0 52.699l-47.835 47.835c42.13 18.066 95.415 8.046 132.937-29.477z" />
<glyph unicode="&#xe919;" glyph-name="Futuresiconcopy-40" d="M812.617 361.143l-40.448 234.496c-14.080 135.753-81.335 253.221-181.906 286.391-10.35 33.573-41.289 58.112-78.263 58.112-36.937 0-67.803-24.466-78.226-57.966-99.803-32.622-165.047-148.114-181.943-286.537l-40.448-234.496-186.222-248.686h323.328c6.107-85.467 76.507-153.161 163.511-153.161s157.403 67.694 163.511 153.161h323.328l-186.222 248.686zM460.251 825.637c-0.11 1.463-0.439 2.853-0.439 4.352 0 28.818 23.369 52.187 52.187 52.187s52.187-23.369 52.187-52.187c0-1.536-0.329-2.962-0.439-4.425 86.382-21.285 144.421-118.821 156.16-232.155 0 0 16.238-110.226 25.051-178.578h-465.92c8.814 68.352 25.051 178.578 25.051 178.578 14.117 115.566 70.29 211.31 156.16 232.229zM633.344 140.142c0-67.035-54.345-121.344-121.344-121.344s-121.344 54.345-121.344 121.344c0 9.765 1.463 19.127 3.621 28.197h-266.057l145.298 194.011h477.001l145.298-194.011h-266.057c2.158-9.106 3.584-18.469 3.584-28.197z" />
<glyph unicode="&#xe91a;" glyph-name="Futures-icon-copy-41" d="M966.51 465.298h-841.070l243.2 193.865c8.119 6.473 9.472 18.322 2.999 26.441-6.51 8.155-18.359 9.472-26.478 2.999l-284.526-226.816c-3.145-2.523-4.937-5.925-5.998-9.509-0.183-0.512-0.366-0.987-0.475-1.536-0.293-1.353-0.329-2.67-0.293-4.059 0-1.39 0.037-2.706 0.329-4.059 0.11-0.512 0.329-0.987 0.475-1.499 1.061-3.584 2.889-6.985 6.071-9.472l285.879-225.097c8.155-6.437 20.005-5.010 26.441 3.145s5.010 20.005-3.145 26.441l-243.2 191.488h839.79c10.386 0 18.834 8.411 18.834 18.834s-8.448 18.834-18.834 18.834z" />
<glyph unicode="&#xe91b;" glyph-name="Futures-icon-copy-42" d="M650.313 175.835c-108.983-79.616-258.889-92.562-383.305-20.736-168.302 97.17-226.048 312.466-128.841 480.841s312.539 226.011 480.841 128.841c121.49-70.144 185.088-201.874 174.665-333.093l-166.363 96.037c-11.959 6.912-27.392 2.816-34.341-9.216s-2.779-27.429 9.216-34.341l217.746-125.696c21.76-12.581 32.841 6.583 34.341 9.216l125.733 217.746c6.949 12.032 2.779 27.429-9.216 34.341-11.959 6.912-27.392 2.816-34.341-9.216l-91.282-158.098c2.45 141.531-69.705 280.064-200.997 355.84-192.475 111.177-438.455 45.202-549.522-147.2s-45.239-438.382 147.237-549.522c139.045-80.274 305.774-67.913 429.568 17.591 34.414 23.771 4.389 65.317-21.138 46.665z" />
<glyph unicode="&#xe91c;" glyph-name="icon_spotusd_btc" d="M169.477 362.092h71.952c6.35 0 12.856 1.007 19.508 3.035 6.643 2.019 12.636 5.128 17.988 9.317 5.343 4.189 9.674 9.459 13.002 15.822 3.319 6.355 4.986 13.872 4.986 22.539 0 7.22-1.516 14.152-4.551 20.804-3.035 6.648-7.444 12.425-13.222 17.342-5.786 4.908-12.787 8.813-21.023 11.702-8.236 2.885-17.553 4.331-27.955 4.331h-60.685v-104.892zM169.477 502.53h64.581c14.449 0 26.151 4.478 35.111 13.437 8.955 8.955 13.437 19.788 13.437 32.51 0 11.551-3.397 21.165-10.182 28.825-6.794 7.651-17.846 11.482-33.16 11.482h-69.786v-86.254zM117.029 625.195h123.965c14.156 0 26.943-1.95 38.361-5.851 11.414-3.901 21.023-9.175 28.825-15.818 7.806-6.652 13.799-14.307 17.992-22.974 4.185-8.671 6.282-17.919 6.282-27.744 0-13.002-3.324-25.354-9.967-37.061-6.652-11.702-16.761-21.889-30.344-30.56 21.673-7.517 36.695-17.842 45.082-30.986 8.378-13.153 12.567-27.382 12.567-42.692 0-11.853-2.6-22.974-7.801-33.38-5.201-10.402-12.21-19.508-21.019-27.309-8.822-7.801-19.008-14.018-30.56-18.638-11.564-4.624-23.555-6.936-35.98-6.936h-137.403v299.949zM608.128 625.197v-36.411h-96.661v-263.538h-52.014v263.538h-96.661v36.411zM683.113 423.208c5.201-15.896 11.986-29.040 20.373-39.442 8.374-10.406 17.837-18.203 28.39-23.404 10.544-5.205 21.307-7.806 32.295-7.806 10.974 0 21.019 2.308 30.125 6.932 9.102 4.624 17.045 10.69 23.839 18.208 6.785 7.513 12.494 16.184 17.118 26.009 4.62 9.821 7.943 19.792 9.971 29.905h52.444c-3.182-16.188-8.305-31.356-15.387-45.508-7.078-14.165-16.253-26.517-27.52-37.065-11.267-10.553-24.493-18.853-39.661-24.924-15.172-6.066-32.153-9.102-50.929-9.102-21.389 0-40.824 3.69-58.299 11.056-17.493 7.367-32.372 18.057-44.647 32.075-12.288 14.014-21.747 31.059-28.394 51.148-6.648 20.080-9.971 42.834-9.971 68.266 0 19.646 3.182 38.792 9.536 57.43 6.355 18.642 15.534 35.115 27.529 49.413 11.986 14.307 26.724 25.794 44.208 34.46 17.484 8.671 37.345 13.007 59.604 13.007 19.073 0 36.040-2.532 50.929-7.586 14.879-5.059 27.886-12.072 39.011-21.023 11.121-8.96 20.442-19.577 27.959-31.86 7.509-12.283 13.286-25.789 17.338-40.527h-53.749c-7.517 21.673-17.988 37.926-31.425 48.767-13.437 10.832-30.125 16.249-50.063 16.249-13.002 0-24.924-3.182-35.765-9.532-10.832-6.359-20.154-14.957-27.955-25.789-7.801-10.841-13.868-23.482-18.203-37.931-4.336-14.453-6.501-29.625-6.501-45.512 0-21.385 2.6-40.023 7.801-55.914z" />
<glyph unicode="&#xe91d;" glyph-name="icon_spotusd_usd" d="M630.808 272.407c-7.79-14.247-18.138-25.799-31.044-34.667-12.893-8.868-27.95-15.321-45.145-19.354-9.317-2.18-18.801-3.719-28.424-4.721v212.861c8.021-2.65 16.021-5.363 23.988-8.176 17.463-6.185 33.057-13.442 46.759-21.77 13.715-8.344 24.721-18.281 33.065-29.837 8.327-11.564 12.495-25.677 12.495-42.327 0-20.436-3.904-37.77-11.694-52.009zM461.088 509.461c-17.74 6.172-33.459 13.568-47.17 22.172-13.707 8.595-24.73 18.809-33.057 30.638-8.34 11.82-12.499 26.331-12.499 43.543 0 16.654 3.631 30.638 10.885 41.925 7.258 11.287 16.797 20.562 28.625 27.82 11.816 7.254 25.258 12.495 40.315 15.719 6.73 1.442 13.522 2.516 20.361 3.312v-187.666c-2.47 0.851-5.011 1.681-7.459 2.537zM685.635 392.546c-11.015 18.004-25.271 33.183-42.726 45.556-17.48 12.361-37.371 22.579-59.669 30.642-18.918 6.834-37.942 13.195-57.044 19.262v204.953c5.56-1.103 11.036-2.398 16.331-4.101 15.040-4.834 28.482-12.092 40.311-21.77 11.816-9.673 21.363-21.644 28.621-35.879 7.258-14.247 11.69-30.512 13.304-48.78h61.283c-1.086 18.268-4.977 37.216-11.694 56.843-6.73 19.619-17.338 37.493-31.849 53.619-14.516 16.126-33.866 29.43-58.055 39.912-16.604 7.195-36.072 11.862-58.252 14.117v66.793h-57.648v-66.181c-17.568-1.346-34.051-4.088-49.388-8.281-22.575-6.185-42.063-15.317-58.453-27.413-16.407-12.097-29.166-27.011-38.302-44.751-9.145-17.736-13.707-38.172-13.707-61.275 0-27.958 5.644-51.199 16.935-69.745 11.283-18.545 25.925-34.143 43.942-46.768 18-12.633 38.16-23.115 60.47-31.443 12.784-4.784 25.627-9.212 38.503-13.371v-229.092c-8.616 1.665-16.897 3.979-24.797 7.023-17.472 6.713-32.654 16.126-45.556 28.218-12.897 12.092-23.115 26.608-30.638 43.543-7.535 16.931-12.097 35.338-13.707 55.229h-61.279c0.532-29.027 6.855-55.367 18.948-79.015 12.097-23.661 27.82-43.677 47.17-60.072 19.35-16.403 41.384-29.027 66.114-37.895 14.306-5.132 28.893-8.73 43.745-10.893v-67.598h57.648v66.118c19.61 1.447 38.101 4.608 55.43 9.551 24.453 6.981 45.682 17.463 63.699 31.447 18.004 13.971 31.975 31.166 41.933 51.602 9.937 20.419 14.914 44.348 14.914 71.761s-5.522 50.118-16.537 68.13z" />
<glyph unicode="&#xe91e;" glyph-name="icon_spotusd_download_app" d="M848.457 287.086v585.251c0 16.328-13.131 29.149-29.329 29.149h-584.999c-16.472 0-29.329-13.051-29.329-29.149v-585.251h643.657zM848.457 228.571h-643.657v-204.908c0-16.328 13.131-29.149 29.329-29.149h584.999c16.472 0 29.329 13.051 29.329 29.149v204.908zM146.286 901.267c0 32.437 26.185 58.733 58.427 58.733h643.832c32.268 0 58.427-26.342 58.427-58.733v-906.535c0-32.437-26.185-58.733-58.427-58.733h-643.832c-32.268 0-58.427 26.342-58.427 58.733v906.535zM526.629 53.029c32.317 0 58.514 26.198 58.514 58.514s-26.198 58.514-58.514 58.514c-32.317 0-58.514-26.198-58.514-58.514s26.198-58.514 58.514-58.514z" />
</font>
</defs>
</svg>
